# xmcd
# 
# Track frame offsets:
#     150
#     20300
#     31512
#     50575
#     62000
#     65637
#     81225
#     95850
#     117475
#     137400
# 
# Disc length: 1980
# 
# Revision: 1
# Processed by: cddbd v1.5.2PL0 Copyright (c) Steve Scherf et al.
# Submitted via: BonkEnc v1.0.8
# 
DISCID=8407ba0a
DTITLE=斉藤ネコ・カルテット - Please
DYEAR=1995
DGENRE=Easy Listening
TTITLE0=Progression
TTITLE1=Nekovitan X (青丸・Blue Pills)
TTITLE2=Nekovitan X (赤丸・Red Pills)
TTITLE3=うれしい気持ちの組曲／ひみつの愛
TTITLE4=うれしい気持ちの組曲／手つなぎ鬼
TTITLE5=うれしい気持ちの組曲／夜気
TTITLE6=Endless Love
TTITLE7=黒い蟻の生活
TTITLE8=Present for You
TTITLE9=Mix-Up
EXTD=YEAR: 1995
EXTT0=
EXTT1=
EXTT2=
EXTT3=
EXTT4=
EXTT5=
EXTT6=
EXTT7=
EXTT8=
EXTT9=
PLAYORDER=
